<svg width="614" height="714" viewBox="0 0 614 714" fill="none" xmlns="http://www.w3.org/2000/svg">
<g filter="url(#filter0_f_140_396)">
<path d="M281.43 298.769C281.43 382.398 281.43 466.591 281.43 550.22C281.43 560.956 276.301 574.517 297.385 574.517C317.901 574.517 313.913 562.652 313.913 551.35C313.913 406.131 315.621 261.476 313.343 116.257C312.772 70.4869 345.826 19.6321 402.813 8.89607C455.813 -1.2749 509.382 30.3682 526.479 82.3533C529.898 92.5238 535.027 98.1757 544.714 103.26C580.617 121.907 597.143 157.506 589.165 196.495C587.456 203.84 586.885 210.622 590.875 218.532C617.09 268.256 611.961 298.769 570.93 341.149C566.94 345.105 565.23 348.495 565.23 353.581C566.94 392.57 550.984 419.691 511.662 430.994C503.114 433.254 501.973 440.034 499.124 446.814C490.006 471.677 474.619 490.89 449.544 501.06C437.577 505.581 431.877 512.927 433.018 526.487C434.157 542.874 432.448 558.696 433.587 575.083C434.728 590.34 430.168 595.426 413.642 595.426C347.536 594.296 281.43 594.86 215.322 595.426C202.215 595.426 195.377 592.034 190.818 579.603C172.581 533.269 141.238 503.32 86.5295 506.146C79.6909 506.711 72.8522 503.886 65.4432 502.756C42.6489 497.67 35.2399 486.37 39.7985 463.767C42.6489 449.64 42.6489 437.208 34.1007 423.648C26.1213 411.217 24.982 394.83 34.6695 381.268C44.3586 367.707 41.5081 360.361 26.6917 353.581C3.32696 343.409 1.61731 333.238 17.0042 313.462C23.2724 305.551 28.9717 297.639 35.8103 290.295C56.895 268.258 65.4432 242.829 63.1647 211.752C56.895 111.17 125.851 45.0596 218.173 24.7176C232.419 21.3273 247.237 20.1971 262.623 19.6321C278.01 19.067 281.43 24.1524 281.43 38.844C280.859 125.297 281.43 212.316 281.43 298.769ZM336.707 481.284C336.707 494.844 336.707 507.841 336.707 521.403C336.707 576.213 336.707 575.647 391.416 574.517C405.093 574.517 408.513 569.433 407.942 557C406.803 544.004 410.222 529.313 405.093 517.447C401.104 507.841 385.717 512.927 376.029 508.406C368.62 505.016 360.642 502.19 363.491 492.584C366.342 482.978 373.749 482.978 382.298 485.238C393.696 488.064 405.664 490.89 417.631 488.63C475.189 476.198 497.415 417.997 462.651 369.402C457.522 362.621 449.544 355.841 459.232 347.931C470.06 338.889 475.759 347.931 482.028 354.711C491.146 364.881 496.275 377.314 500.263 389.744C506.533 408.957 512.801 410.651 527.049 395.96C532.747 390.308 536.166 383.528 538.446 376.184C541.295 366.577 541.865 357.535 526.479 359.231C519.07 360.361 513.372 357.535 512.231 350.191C510.521 341.149 517.36 337.759 524.199 335.498C527.618 334.368 531.037 334.368 534.456 333.238C561.241 324.198 576.627 304.985 580.617 277.862C584.036 253.565 574.349 233.789 555.543 218.532C550.414 214.576 544.714 211.752 539.585 208.362C535.027 204.97 529.898 201.58 532.747 194.799C535.597 188.019 541.295 184.063 548.134 186.889C573.208 197.625 566.369 178.413 565.23 168.242C563.521 154.116 555.543 142.249 544.714 132.643C535.597 124.733 531.037 126.993 529.328 137.729C527.049 151.29 522.489 163.722 514.511 174.457C509.953 181.239 504.824 187.453 495.705 181.803C486.586 176.153 489.437 168.806 493.995 162.026C504.824 145.075 508.243 126.993 506.533 107.78C503.114 73.8771 483.737 50.1451 452.393 38.844C422.19 28.108 393.126 30.9331 367.481 52.4053C337.278 77.8331 336.137 111.736 336.707 146.77C336.707 160.332 337.847 167.112 354.943 165.982C375.459 164.852 391.987 180.673 395.406 199.32C397.116 207.232 398.825 217.402 387.426 220.226C376.6 223.052 372.04 216.272 370.9 206.666C369.761 195.929 363.491 189.713 352.665 190.843C340.127 191.975 337.278 201.016 337.278 211.752C337.278 256.956 337.847 301.595 337.278 346.801C337.278 360.925 343.546 369.402 356.084 369.968C369.191 370.532 378.878 362.621 379.449 347.931C380.019 339.454 379.449 328.718 391.416 330.414C403.954 332.108 405.093 342.845 403.954 353.015C400.535 376.748 381.729 394.83 357.223 392.57C338.417 390.874 336.137 398.785 336.707 414.041C337.278 436.078 336.707 458.681 336.707 481.284Z" stroke="#FEC64B" stroke-opacity="0.6" stroke-width="10" stroke-miterlimit="10"/>
<path d="M315.623 619.158C349.816 619.158 383.438 619.158 417.631 619.158C425.611 619.158 433.589 617.462 433.589 629.895C433.018 642.325 425.04 640.631 417.062 640.631C349.247 640.631 280.861 640.631 213.044 640.631C205.636 640.631 197.088 642.891 196.518 630.459C195.947 616.332 205.636 619.158 213.614 619.158C247.807 618.592 281.43 619.158 315.623 619.158Z" stroke="#FEC64B" stroke-opacity="0.6" stroke-width="10" stroke-miterlimit="10"/>
<path d="M315.623 658.714C338.417 658.714 361.213 658.714 383.438 658.714C392.557 658.714 395.976 661.538 395.976 670.58C395.976 680.184 390.277 680.186 383.438 680.186C373.751 680.186 363.493 680.75 353.804 680.186C342.407 679.62 334.998 681.316 329.3 693.747C321.321 710.133 294.536 711.828 287.698 696.007C280.289 678.49 268.323 681.88 255.785 680.186C247.807 679.62 233.559 687.531 234.13 669.45C234.699 651.933 248.376 659.844 256.355 659.278C275.73 657.583 295.676 658.714 315.623 658.714Z" stroke="#FEC64B" stroke-opacity="0.6" stroke-width="10" stroke-miterlimit="10"/>
<path d="M429.597 320.806C393.695 320.806 363.491 291.423 365.201 259.78C365.771 252.435 366.911 245.653 376.6 245.089C384.578 244.523 386.856 250.739 388.566 256.956C389.136 259.78 389.707 262.606 390.275 265.43C393.695 283.513 404.523 294.249 422.19 297.639C438.716 300.465 452.964 294.249 462.651 280.687C468.35 272.776 472.339 263.17 483.737 270.516C496.274 278.992 487.157 288.033 482.028 295.943C470.629 312.33 452.393 320.806 429.597 320.806Z" stroke="#FEC64B" stroke-opacity="0.6" stroke-width="10" stroke-miterlimit="10"/>
<path d="M422.76 58.0547C448.974 58.0547 473.479 78.3973 476.328 102.694C477.469 110.605 476.899 118.515 466.641 120.777C457.522 122.471 452.964 116.255 451.824 108.91C448.974 91.3938 439.857 81.7875 422.19 82.3516C404.523 82.9175 395.975 93.088 394.835 110.605C394.265 118.517 389.707 126.427 379.449 124.167C370.9 122.471 369.761 115.125 369.761 107.78C370.332 82.3516 395.406 58.6197 422.76 58.0547Z" stroke="#FEC64B" stroke-opacity="0.6" stroke-width="10" stroke-miterlimit="10"/>
<path d="M418.202 147.332C443.847 146.768 467.782 166.545 472.911 192.538C478.61 218.531 464.933 246.218 441.566 255.258C434.728 258.084 427.32 259.78 422.76 251.868C417.631 243.392 422.191 237.177 430.169 233.221C444.986 225.875 453.534 214.01 449.546 197.622C446.127 181.801 435.298 172.195 417.631 172.195C409.083 172.195 402.244 167.675 403.385 158.068C404.524 149.028 411.363 146.768 418.202 147.332Z" stroke="#FEC64B" stroke-opacity="0.6" stroke-width="10" stroke-miterlimit="10"/>
<path d="M451.254 405.005C451.823 425.911 443.275 440.038 427.319 449.078C411.362 458.684 394.835 458.684 378.878 449.078C371.469 445.122 362.921 439.472 367.481 429.301C372.61 418.565 380.588 421.391 389.136 426.475C399.394 432.692 409.652 432.126 418.771 424.781C427.319 418.565 427.888 408.959 425.039 399.918C421.619 390.312 419.339 380.706 431.877 377.882C443.845 375.056 446.694 386.358 450.113 394.268C451.823 398.222 451.254 402.744 451.254 405.005Z" stroke="#FEC64B" stroke-opacity="0.6" stroke-width="10" stroke-miterlimit="10"/>
<path d="M557.823 267.692C557.823 289.163 540.157 308.375 518.501 310.07C511.093 310.635 503.684 309.505 501.975 301.029C500.265 292.553 505.394 289.163 513.372 286.903C535.597 280.122 539.017 267.126 522.49 251.305C516.791 245.653 510.523 240.003 517.932 232.093C524.2 224.746 532.178 228.137 538.448 233.223C551.555 240.569 558.393 251.869 557.823 267.692Z" stroke="#FEC64B" stroke-opacity="0.6" stroke-width="10" stroke-miterlimit="10"/>
</g>
<path d="M281.43 298.769C281.43 382.398 281.43 466.591 281.43 550.218C281.43 560.955 276.301 574.517 297.385 574.517C317.901 574.517 313.913 562.651 313.913 551.348C313.913 406.129 315.621 261.476 313.343 116.257C312.772 70.4869 345.826 19.6321 402.813 8.89607C455.813 -1.2749 509.382 30.3682 526.479 82.3533C529.898 92.5238 535.027 98.174 544.714 103.26C580.617 121.907 597.143 157.506 589.165 196.494C587.456 203.84 586.885 210.62 590.875 218.532C617.09 268.256 611.961 298.769 570.93 341.149C566.94 345.105 565.23 348.495 565.23 353.579C566.94 392.569 550.984 419.691 511.662 430.992C503.114 433.252 501.973 440.032 499.124 446.814C490.006 471.675 474.619 490.888 449.544 501.059C437.577 505.579 431.877 512.925 433.018 526.487C434.157 542.874 432.448 558.695 433.587 575.081C434.728 590.338 430.168 595.424 413.642 595.424C347.536 594.294 281.43 594.858 215.322 595.424C202.215 595.424 195.377 592.034 190.818 579.601C172.581 533.268 141.238 503.319 86.5295 506.145C79.6909 506.711 72.8522 503.885 65.4432 502.754C42.6489 497.668 35.2399 486.368 39.7985 463.765C42.6489 449.639 42.6489 437.208 34.1007 423.646C26.1213 411.215 24.982 394.829 34.6695 381.268C44.3586 367.706 41.5081 360.361 26.6917 353.579C3.32696 343.409 1.61731 333.238 17.0042 313.462C23.2724 305.549 28.9717 297.639 35.8103 290.293C56.895 268.256 65.4432 242.829 63.1647 211.75C56.895 111.17 125.851 45.0596 218.173 24.7175C232.419 21.3271 247.237 20.1971 262.623 19.6321C278.01 19.067 281.43 24.1524 281.43 38.844C280.859 125.297 281.43 212.316 281.43 298.769ZM336.707 481.282C336.707 494.844 336.707 507.841 336.707 521.401C336.707 576.211 336.707 575.647 391.416 574.517C405.093 574.517 408.513 569.431 407.942 557C406.803 544.004 410.222 529.312 405.093 517.445C401.104 507.841 385.717 512.925 376.029 508.405C368.62 505.015 360.642 502.189 363.491 492.584C366.342 482.978 373.749 482.978 382.298 485.238C393.696 488.062 405.664 490.888 417.631 488.628C475.189 476.197 497.415 417.996 462.651 369.402C457.522 362.621 449.544 355.839 459.232 347.929C470.06 338.889 475.759 347.929 482.028 354.709C491.146 364.881 496.275 377.312 500.263 389.743C506.533 408.955 512.801 410.651 527.049 395.959C532.747 390.308 536.166 383.528 538.446 376.182C541.295 366.576 541.865 357.535 526.479 359.229C519.07 360.361 513.372 357.535 512.231 350.189C510.521 341.149 517.36 337.759 524.199 335.498C527.618 334.368 531.037 334.368 534.456 333.238C561.241 324.196 576.627 304.985 580.617 277.862C584.036 253.565 574.349 233.789 555.543 218.532C550.414 214.576 544.714 211.75 539.585 208.36C535.027 204.97 529.898 201.58 532.747 194.799C535.597 188.019 541.295 184.063 548.134 186.889C573.208 197.625 566.369 178.413 565.23 168.242C563.521 154.116 555.543 142.249 544.714 132.643C535.597 124.733 531.037 126.993 529.328 137.729C527.049 151.29 522.489 163.72 514.511 174.457C509.953 181.237 504.824 187.453 495.705 181.803C486.586 176.153 489.437 168.806 493.995 162.026C504.824 145.074 508.243 126.993 506.533 107.78C503.114 73.8771 483.737 50.145 452.393 38.844C422.19 28.1078 393.126 30.9331 367.481 52.4053C337.278 77.8331 336.137 111.736 336.707 146.77C336.707 160.33 337.847 167.112 354.943 165.98C375.459 164.85 391.987 180.673 395.406 199.32C397.116 207.23 398.825 217.402 387.426 220.226C376.6 223.052 372.04 216.272 370.9 206.666C369.761 195.929 363.491 189.713 352.665 190.843C340.127 191.973 337.278 201.015 337.278 211.75C337.278 256.956 337.847 301.595 337.278 346.799C337.278 360.925 343.546 369.402 356.084 369.966C369.191 370.532 378.878 362.621 379.449 347.929C380.019 339.453 379.449 328.718 391.416 330.412C403.954 332.108 405.093 342.843 403.954 353.015C400.535 376.748 381.729 394.829 357.223 392.569C338.417 390.873 336.137 398.785 336.707 414.041C337.278 436.078 336.707 458.679 336.707 481.282Z" stroke="#FEC64B" stroke-width="2" stroke-miterlimit="10"/>
<path d="M315.623 619.157C349.816 619.157 383.438 619.157 417.631 619.157C425.611 619.157 433.589 617.461 433.589 629.891C433.018 642.323 425.04 640.628 417.062 640.628C349.247 640.628 280.861 640.628 213.044 640.628C205.636 640.628 197.088 642.888 196.518 630.457C195.947 616.331 205.636 619.157 213.614 619.157C247.807 618.591 281.43 619.157 315.623 619.157Z" stroke="#FEC64B" stroke-width="2" stroke-miterlimit="10"/>
<path d="M315.623 658.712C338.417 658.712 361.213 658.712 383.438 658.712C392.557 658.712 395.976 661.536 395.976 670.578C395.976 680.183 390.277 680.185 383.438 680.185C373.751 680.185 363.493 680.749 353.804 680.185C342.407 679.619 334.998 681.315 329.3 693.745C321.321 710.132 294.536 711.826 287.698 696.005C280.289 678.489 268.323 681.879 255.785 680.185C247.807 679.619 233.559 687.529 234.13 669.448C234.699 651.932 248.376 659.842 256.355 659.276C275.73 657.582 295.676 658.712 315.623 658.712Z" stroke="#FEC64B" stroke-width="2" stroke-miterlimit="10"/>
<path d="M429.597 320.804C393.695 320.804 363.491 291.421 365.201 259.778C365.771 252.434 366.911 245.652 376.598 245.087C384.578 244.522 386.856 250.738 388.566 256.954C389.136 259.778 389.707 262.604 390.275 265.428C393.695 283.511 404.523 294.247 422.19 297.637C438.716 300.463 452.964 294.247 462.651 280.685C468.35 272.775 472.339 263.168 483.737 270.514C496.274 278.991 487.157 288.031 482.028 295.941C470.629 312.328 452.393 320.804 429.597 320.804Z" stroke="#FEC64B" stroke-width="2" stroke-miterlimit="10"/>
<path d="M422.76 58.0537C448.975 58.0537 473.479 78.3955 476.33 102.692C477.469 110.605 476.899 118.515 466.641 120.775C457.524 122.471 452.964 116.255 451.824 108.909C448.975 91.3919 439.857 81.7856 422.19 82.3515C404.525 82.9157 395.976 93.0879 394.835 110.604C394.267 118.515 389.707 126.425 379.449 124.165C370.9 122.471 369.761 115.125 369.761 107.779C370.332 82.3515 395.406 58.6187 422.76 58.0537Z" stroke="#FEC64B" stroke-width="2" stroke-miterlimit="10"/>
<path d="M418.202 147.332C443.847 146.768 467.782 166.545 472.911 192.538C478.608 218.531 464.931 246.218 441.566 255.258C434.728 258.084 427.319 259.778 422.76 251.868C417.631 243.392 422.19 237.177 430.169 233.221C444.986 225.875 453.534 214.009 449.544 197.622C446.125 181.801 435.298 172.195 417.631 172.195C409.083 172.195 402.244 167.675 403.384 158.068C404.525 149.028 411.363 146.768 418.202 147.332Z" stroke="#FEC64B" stroke-width="2" stroke-miterlimit="10"/>
<path d="M451.254 405.003C451.823 425.91 443.275 440.036 427.319 449.077C411.362 458.683 394.835 458.683 378.878 449.077C371.469 445.122 362.921 439.472 367.481 429.3C372.61 418.565 380.588 421.389 389.136 426.476C399.394 432.69 409.652 432.126 418.771 424.78C427.319 418.563 427.888 408.959 425.039 399.917C421.619 390.312 419.339 380.706 431.877 377.88C443.845 375.056 446.694 386.356 450.113 394.266C451.823 398.223 451.254 402.743 451.254 405.003Z" stroke="#FEC64B" stroke-width="2" stroke-miterlimit="10"/>
<path d="M557.823 267.69C557.823 289.163 540.157 308.374 518.501 310.07C511.093 310.634 503.684 309.504 501.975 301.029C500.265 292.553 505.394 289.163 513.372 286.903C535.597 280.121 539.017 267.126 522.49 251.303C516.791 245.653 510.523 240.003 517.932 232.091C524.2 224.746 532.178 228.137 538.448 233.221C551.555 240.567 558.393 251.869 557.823 267.69Z" stroke="#FEC64B" stroke-width="2" stroke-miterlimit="10"/>
<defs>
<filter id="filter0_f_140_396" x="-0.000610352" y="-0.000976562" width="614.001" height="714" filterUnits="userSpaceOnUse" color-interpolation-filters="sRGB">
<feFlood flood-opacity="0" result="BackgroundImageFix"/>
<feBlend mode="normal" in="SourceGraphic" in2="BackgroundImageFix" result="shape"/>
<feGaussianBlur stdDeviation="1" result="effect1_foregroundBlur_140_396"/>
</filter>
</defs>
</svg>
